<?xml version="1.0" encoding="utf-8"?>
<!-- Generator: Adobe Illustrator 24.0.3, SVG Export Plug-In . SVG Version: 6.00 Build 0)  -->
<svg version="1.1" id="Layer_1" xmlns="http://www.w3.org/2000/svg" xmlns:xlink="http://www.w3.org/1999/xlink" x="0px" y="0px"
	 viewBox="0 0 419 419" style="enable-background:new 0 0 419 419;" xml:space="preserve">
<style type="text/css">
	.st0{fill:#3044FA;}
</style>
<path class="st0" d="M416.6,419h-71V156.2h71V419z"/>
<path class="st0" d="M3.3,180c0,13.4,11.9,24.1,26.6,24.1h6.8c0.4,0,0.8,0.1,1.2,0.2v-0.1c0.2,0,0.4-0.1,0.7-0.1h54.9
	c3.9,0,7,3.1,7,7c0,3.9-3.1,7-7,7H36.9c-14.1,1-25,11.6-25,24.7v0.7c0,13.4,11.5,24.5,26.1,24.5h50.2c3.9,0,7,3.1,7,7
	c0,3.9-3.1,7-7,7H48.8c-14.6,0-26.6,11-26.6,24.5c0,13.4,11.9,24.4,26.6,24.4H86c3.9,0,7,3.1,7,7c0,3.9-3.1,7-7,7H65.8
	c-14.6,0-27,10.6-27,24v0.7c0,13.4,12.3,24.3,26.9,24.3c60,0.1,179,0.1,265.9,0V203.8c-8-17.9-34.6-35.4-54-48.2
	c-3.1-2-6.1-4-8.8-5.8c-7.8-5.4-14.6-12.1-20-19.9c-8.4-12-13.4-26-14.6-40.5L227.5,0l-10.4,1.6c-0.1,0-0.1,0-0.2,0
	c-23.9,3.2-42,23.2-42.6,47.3l2.8,99.5c0.1,1.9-0.7,3.7-2,5.1c-1.3,1.4-3.1,2.1-5,2.1l-140.3,0.1C15.2,155.9,3.3,166.6,3.3,180z"/>
</svg>
